<?xml version="1.0" standalone="no"?>
<!DOCTYPE svg PUBLIC "-//W3C//DTD SVG 20010904//EN"
 "http://www.w3.org/TR/2001/REC-SVG-20010904/DTD/svg10.dtd">
<svg version="1.0" xmlns="http://www.w3.org/2000/svg"
 width="512.000000pt" height="512.000000pt" viewBox="0 0 512.000000 512.000000"
 preserveAspectRatio="xMidYMid meet">

<g transform="translate(0.000000,512.000000) scale(0.100000,-0.100000)"
fill="#000000" stroke="none">
<path d="M1355 5021 c-72 -18 -132 -68 -159 -133 -14 -33 -16 -180 -16 -1293
0 -1192 -1 -1256 -17 -1251 -49 14 -778 166 -798 166 -59 0 -55 14 -216 -738
-90 -419 -148 -713 -145 -728 4 -13 17 -31 29 -39 23 -15 530 -127 747 -165
63 -11 137 -26 165 -33 l50 -13 7 -52 c10 -67 36 -117 85 -163 52 -50 96 -70
162 -76 67 -6 125 8 176 43 20 14 39 24 40 22 1 -2 12 -22 23 -44 53 -105 195
-167 309 -135 30 9 32 8 47 -33 66 -173 290 -225 438 -101 37 31 44 31 52 2
10 -41 82 -113 138 -138 111 -49 216 -26 331 74 55 47 70 55 132 66 251 47
594 203 894 408 l126 86 554 118 c305 65 565 126 577 134 13 8 26 26 30 39 3
15 -55 307 -145 728 -161 751 -157 738 -216 738 -19 0 -751 -152 -797 -166
-17 -5 -18 59 -18 1251 0 1113 -2 1260 -16 1293 -19 47 -58 88 -109 115 l-40
22 -1195 2 c-657 0 -1208 -2 -1225 -6z m2388 -162 c12 -7 25 -17 29 -23 4 -6
8 -576 8 -1267 l0 -1255 -136 67 c-432 214 -879 274 -1404 189 -190 -31 -366
-77 -733 -191 -87 -27 -160 -49 -162 -49 -8 0 -5 2494 3 2506 4 6 16 16 27 22
29 16 2337 17 2368 1z m-888 -2420 c267 -23 493 -88 745 -216 l165 -84 128 27
c70 15 130 25 133 22 9 -10 256 -1179 251 -1192 -3 -7 -73 -26 -162 -45 l-157
-33 -91 89 c-161 157 -295 244 -672 437 -320 165 -429 231 -563 344 -63 54
-157 168 -201 245 -32 57 -73 83 -109 70 -9 -4 -44 -30 -77 -58 -127 -110
-262 -185 -405 -224 -77 -22 -204 -28 -229 -12 -26 17 24 73 237 272 114 106
236 221 272 256 l66 62 99 16 c203 33 383 41 570 24z m-2155 -159 c127 -27
233 -50 234 -50 2 0 -254 -1203 -257 -1206 -7 -7 -491 104 -494 113 -2 6 52
275 121 598 70 322 126 588 126 591 0 10 51 1 270 -46z m3990 45 c0 -3 57
-269 126 -591 69 -322 123 -591 121 -597 -3 -9 -487 -120 -494 -114 -7 8 -255
1198 -251 1203 9 8 434 101 471 103 15 1 27 -1 27 -4z m-2890 -68 c-36 -34
-113 -107 -171 -162 -161 -153 -207 -236 -181 -324 47 -154 295 -176 583 -51
84 37 205 109 262 157 l29 23 48 -62 c59 -78 184 -198 270 -260 107 -76 192
-125 455 -261 383 -198 508 -277 650 -411 l60 -56 -33 -29 c-56 -48 -335 -210
-464 -268 -106 -48 -272 -108 -349 -126 -25 -6 -27 -5 -32 44 -15 121 -114
214 -249 234 -47 7 -47 7 -63 62 -18 63 -77 133 -140 166 -33 18 -56 22 -132
22 l-93 -1 -10 32 c-15 44 -75 111 -120 134 -96 49 -196 46 -283 -10 l-45 -28
-6 22 c-11 46 -75 114 -133 142 -46 23 -69 28 -122 27 -107 -2 -128 -14 -338
-204 l-139 -126 -107 26 c-59 14 -107 31 -107 36 0 19 250 1178 255 1183 3 3
52 -4 109 -16 l103 -22 264 81 c145 44 269 82 274 84 6 2 12 4 15 4 3 0 -24
-27 -60 -62z m-202 -1163 c13 -9 30 -32 39 -52 28 -66 11 -92 -149 -233 -155
-136 -173 -149 -213 -149 -91 0 -146 105 -92 178 28 39 278 259 309 272 28 12
74 5 106 -16z m470 -140 c32 -34 39 -63 25 -112 -7 -27 -284 -278 -323 -294
-84 -33 -178 54 -150 138 9 26 50 69 153 161 78 69 156 132 172 139 43 19 85
8 123 -32z m342 -169 c33 -17 60 -61 60 -97 0 -44 -36 -87 -177 -211 -95 -83
-153 -126 -174 -131 -47 -9 -100 20 -123 67 -33 69 -17 96 145 238 77 68 151
129 162 136 30 17 72 16 107 -2z m316 -261 c27 -18 44 -56 44 -100 0 -29 -10
-45 -51 -89 -62 -65 -120 -92 -164 -75 -68 26 -100 90 -75 151 15 34 91 105
135 125 33 15 77 10 111 -12z"/>
<path d="M1987 4720 c-224 -38 -403 -188 -478 -400 -33 -93 -34 -265 -1 -368
61 -194 240 -355 442 -398 309 -65 624 135 696 442 22 93 14 245 -16 331 -69
198 -249 351 -455 388 -88 16 -117 16 -188 5z m233 -183 c111 -41 192 -116
243 -226 43 -91 50 -215 17 -310 -84 -250 -363 -370 -596 -256 -328 161 -322
629 10 781 104 48 217 52 326 11z"/>
<path d="M2153 4228 l-113 -112 -83 81 c-76 76 -95 87 -139 84 -27 -2 -58 -42
-58 -75 0 -26 21 -52 120 -153 65 -67 130 -125 143 -128 40 -10 73 15 220 162
126 128 137 143 137 176 0 49 -28 77 -77 77 -33 0 -47 -10 -150 -112z"/>
<path d="M2853 4720 c-45 -18 -58 -95 -23 -130 19 -19 33 -20 394 -20 l375 0
20 26 c28 35 26 67 -3 101 l-24 28 -359 2 c-197 1 -368 -2 -380 -7z"/>
<path d="M2832 4257 c-32 -34 -30 -89 4 -116 26 -20 38 -21 380 -21 237 0 361
4 377 11 49 22 61 86 22 124 l-24 25 -369 0 -369 0 -21 -23z"/>
<path d="M2860 3833 c-54 -20 -69 -92 -27 -131 23 -22 27 -22 391 -22 l367 0
24 25 c33 33 32 70 -4 106 l-29 29 -354 -1 c-194 0 -360 -3 -368 -6z"/>
<path d="M1501 3364 c-39 -49 -18 -115 41 -129 13 -3 479 -4 1036 -3 l1014 3
24 28 c31 36 31 71 -1 102 l-24 25 -1035 0 -1035 0 -20 -26z"/>
<path d="M1523 2940 c-47 -19 -57 -87 -18 -125 l24 -25 1031 0 1031 0 24 25
c40 40 30 96 -22 123 -26 14 -2035 16 -2070 2z"/>
</g>
</svg>
