<?xml version="1.0" standalone="no"?>
<!DOCTYPE svg PUBLIC "-//W3C//DTD SVG 20010904//EN"
 "http://www.w3.org/TR/2001/REC-SVG-20010904/DTD/svg10.dtd">
<svg version="1.0" xmlns="http://www.w3.org/2000/svg"
 width="512.000000pt" height="512.000000pt" viewBox="0 0 512.000000 512.000000"
 preserveAspectRatio="xMidYMid meet">

<g transform="translate(0.000000,512.000000) scale(0.100000,-0.100000)"
fill="#000000" stroke="none">
<path d="M2207 5110 c-619 -60 -1134 -293 -1528 -690 -167 -169 -308 -366
-418 -587 -405 -813 -324 -1808 203 -2510 334 -446 804 -744 1413 -897 125
-32 137 -32 199 -1 70 35 98 80 102 166 4 59 1 74 -21 111 -33 57 -80 81 -212
113 -661 156 -1161 573 -1395 1164 -314 793 -87 1745 542 2278 431 365 1047
529 1620 432 623 -106 1156 -505 1433 -1074 77 -157 114 -261 150 -420 32
-142 48 -185 84 -219 77 -73 196 -73 274 2 78 74 79 159 6 418 -225 802 -902
1452 -1728 1659 -214 53 -511 76 -724 55z"/>
<path d="M2290 4214 c-45 -20 -77 -50 -101 -96 -18 -35 -19 -66 -19 -589 l0
-551 -34 -40 c-40 -47 -66 -114 -66 -172 0 -40 -4 -45 -295 -330 -172 -167
-304 -305 -315 -327 -37 -72 -18 -182 41 -236 34 -31 91 -53 136 -53 79 1 113
28 422 334 294 291 296 293 346 300 232 30 337 297 191 489 l-25 33 -3 554
c-3 495 -5 558 -20 585 -52 95 -166 139 -258 99z"/>
<path d="M3599 2686 c-589 -85 -993 -445 -1136 -1011 -26 -103 -28 -123 -28
-325 0 -202 2 -222 28 -325 144 -571 547 -927 1147 -1011 657 -93 1297 349
1465 1011 154 605 -143 1249 -705 1530 -240 120 -518 167 -771 131z m325 -401
c207 -36 373 -123 518 -273 183 -188 271 -403 271 -662 0 -269 -98 -497 -295
-686 -181 -174 -393 -259 -643 -259 -453 1 -809 271 -921 701 -36 135 -38 335
-6 467 96 392 377 650 777 713 111 17 197 17 299 -1z"/>
<path d="M3390 1834 c-75 -32 -120 -102 -120 -184 0 -70 18 -101 123 -207 l92
-93 -92 -92 c-104 -106 -123 -138 -123 -205 1 -148 145 -245 275 -184 22 10
78 58 125 105 46 47 89 86 95 86 6 0 49 -39 95 -86 92 -93 142 -123 205 -124
87 0 185 83 200 168 13 77 -8 118 -118 230 l-101 102 96 98 c53 53 102 108
109 122 17 35 16 129 -3 165 -36 67 -113 115 -185 115 -61 -1 -112 -32 -203
-124 -46 -47 -89 -86 -95 -86 -6 0 -49 39 -95 86 -47 47 -103 95 -125 105 -48
22 -108 24 -155 3z"/>
</g>
</svg>
